<svg width="52" height="52" viewBox="0 0 52 52" fill="none" xmlns="http://www.w3.org/2000/svg">
<path d="M25.8564 10.5538C25.8564 10.2777 25.6325 10.0538 25.3564 10.0538C25.0802 10.0538 24.8564 10.2777 24.8564 10.5538H25.8564ZM40.0589 26.9005C40.335 26.9005 40.5589 26.6767 40.5589 26.4005C40.5589 26.1244 40.335 25.9005 40.0589 25.9005V26.9005ZM26 50.5C12.489 50.5 1.5 39.511 1.5 26H0.5C0.5 40.0633 11.9367 51.5 26 51.5V50.5ZM1.5 26C1.5 12.489 12.489 1.5 26 1.5V0.5C11.9367 0.5 0.5 11.9367 0.5 26H1.5ZM26 1.5C39.511 1.5 50.5 12.489 50.5 26H51.5C51.5 11.9367 40.0633 0.5 26 0.5V1.5ZM50.5 26C50.5 39.511 39.511 50.5 26 50.5V51.5C40.0633 51.5 51.5 40.0633 51.5 26H50.5ZM24.8564 10.5538V26.0573H25.8564V10.5538H24.8564ZM24.8564 26.0573C24.8564 26.3074 24.9551 26.5317 25.1315 26.6884C25.2986 26.837 25.5073 26.9005 25.6996 26.9005V25.9005C25.7204 25.9005 25.7574 25.9069 25.7958 25.941C25.816 25.959 25.8329 25.9818 25.844 26.007C25.855 26.0322 25.8564 26.051 25.8564 26.0573H24.8564ZM25.6996 26.9005H40.0589V25.9005H25.6996V26.9005Z" fill="#5B114E"/>
</svg>
