<svg width="54" height="52" viewBox="0 0 54 52" fill="none" xmlns="http://www.w3.org/2000/svg">
<path d="M32.8283 36.0535H45.351L52.25 51H1L7.89904 36.0535H20.4217M32.8283 36.0535L39.6114 27.8011C40.6227 26.6161 41.4262 25.2699 41.9884 23.8192C42.9444 21.2012 43.2538 18.3928 42.8905 15.6308C42.5273 12.8688 41.5021 10.2342 39.9013 7.94937C38.4265 5.80696 36.4494 4.05452 34.1412 2.84366C31.833 1.6328 29.2631 1 26.654 1C24.0449 1 21.475 1.6328 19.1668 2.84366C16.8586 4.05452 14.8815 5.80696 13.4067 7.94937C11.8059 10.2342 10.7807 12.8688 10.4174 15.6308C10.0542 18.3928 10.3636 21.2012 11.3196 23.8192C11.8817 25.2699 12.6853 26.6161 13.6966 27.8011L20.4217 36.0535M32.8283 36.0535L31.9007 37.1499L26.625 43.5556L21.3493 37.2076L20.4217 36.0535M33.3501 16.3319C33.3387 15.0104 32.9346 13.7219 32.1887 12.6286C31.4428 11.5354 30.3885 10.6864 29.1587 10.1885C27.9289 9.6907 26.5785 9.56634 25.2778 9.83112C23.9771 10.0959 22.7843 10.738 21.8495 11.6764C20.9148 12.6149 20.28 13.8077 20.0252 15.1047C19.7704 16.4016 19.9069 17.7446 20.4176 18.9645C20.9282 20.1843 21.7902 21.2264 22.8948 21.9595C23.9995 22.6925 25.2974 23.0837 26.625 23.0838C27.5131 23.0838 28.3923 22.9088 29.2121 22.5687C30.0318 22.2287 30.7758 21.7305 31.401 21.1027C32.0262 20.475 32.5204 19.7302 32.8549 18.9114C33.1895 18.0925 33.3578 17.2158 33.3501 16.3319Z" stroke="#5B114E"/>
</svg>
