<svg width="52" height="52" viewBox="0 0 52 52" fill="none" xmlns="http://www.w3.org/2000/svg">
<path d="M23.3429 25.1845C24.0798 24.4473 24.0817 23.25 23.347 22.5151L19.2025 18.3708C18.8467 18.0149 18.3744 17.819 17.8721 17.819C17.8703 17.819 17.8685 17.819 17.8666 17.819C17.3636 17.8203 16.8902 18.0181 16.5333 18.375L15.4321 19.4764C14.4696 20.4388 14.5274 22.2463 15.5947 24.5666C16.5968 26.7443 18.3809 29.1761 20.6188 31.4138C24.284 35.0792 28.2051 37.2779 30.7011 37.2774C31.4793 37.2774 32.1193 37.0637 32.5693 36.6136L33.6705 35.5122C34.4075 34.775 34.4075 33.5759 33.6705 32.8387L29.5301 28.6985C29.1732 28.3411 28.6984 28.1443 28.1934 28.1443C27.6885 28.1443 27.2137 28.3411 26.8568 28.6985L25.395 30.1624C25.2237 30.2477 24.3149 29.9816 23.1832 28.8499C22.0751 27.7416 21.7976 26.8122 21.8717 26.6557L23.3429 25.1845Z" stroke="#5B114E"/>
<path d="M37.295 25.6809C37.3028 22.7711 36.1752 20.0301 34.12 17.9639C32.0647 15.8973 29.331 14.756 26.423 14.75H26.4221" stroke="#5B114E" stroke-linecap="round"/>
<path d="M34.3148 25.6703C34.3205 23.5578 33.5012 21.5677 32.0078 20.0658C30.5143 18.5643 28.5282 17.734 26.4157 17.7285H26.4146" stroke="#5B114E" stroke-linecap="round"/>
<path d="M31.3345 25.6625C31.3419 22.9384 29.1317 20.7163 26.4079 20.7085H26.4065" stroke="#5B114E" stroke-linecap="round"/>
<circle cx="26" cy="26" r="25" stroke="#5B114E"/>
</svg>
