<svg width="52" height="52" viewBox="0 0 52 52" fill="none" xmlns="http://www.w3.org/2000/svg">
<path d="M1 26.0006L1.00038 25.9986C1.00065 19.3465 3.5669 13.1205 8.23708 8.41304M1 26.0006L1.00047 26.0028C1.00139 32.8716 3.79051 39.0987 8.29185 43.6211M1 26.0006L50.9996 25.9986M25.9977 50.9987L26.0041 51L26.0105 50.9987M25.9977 50.9987L26.0045 1C25.4488 1 24.8957 1.0181 24.3459 1.05403M25.9977 50.9987C25.4635 50.9985 24.9333 50.9815 24.4074 50.9482M16.1849 12.3161C13.65 11.4783 11.2045 10.3157 8.90132 8.84444L8.23708 8.41304M16.1849 12.3161C14.9759 16.2742 14.3231 20.8533 14.2896 25.616L14.2897 26.3852C14.3233 31.1449 14.9757 35.723 16.184 39.6834M16.1849 12.3161L16.9174 12.5513C19.7401 13.4089 22.6653 13.8636 25.6195 13.9001H26.3805C29.3347 13.8636 32.2599 13.4089 35.0826 12.5513L35.8151 12.3161M16.1849 12.3161L16.4127 11.5814C17.9542 6.89962 20.1852 3.55666 22.7145 1.99476L24.3459 1.05403M16.184 39.6834C13.6493 40.5213 11.2042 41.6865 8.90536 43.1527L8.29185 43.6211M16.184 39.6834L16.9174 39.4514C19.7378 38.5919 22.6607 38.139 25.6195 38.1027H26.3805C29.3393 38.139 32.2622 38.5919 35.0826 39.4514L35.816 39.6834M16.184 39.6834L16.4117 40.4184C17.951 45.0948 20.179 48.4355 22.7058 49.9992L24.4074 50.9482M50.9996 25.9986L51 26.0006L50.9995 26.0028C50.9986 32.8642 48.2155 39.0852 43.7228 43.6064M50.9996 25.9986C50.9993 19.3428 48.4302 13.1135 43.7551 8.40511M26.0023 50.9987L25.9959 51L25.9895 50.9987M26.0023 50.9987L25.9955 1C26.5512 1 27.1043 1.0181 27.6541 1.05403M26.0023 50.9987C26.5365 50.9985 27.0667 50.9815 27.5926 50.9482M35.8151 12.3161C38.35 11.4783 40.7955 10.3157 43.0987 8.84444L43.7551 8.40511M35.8151 12.3161C37.0241 16.2742 37.6769 20.8533 37.7104 25.616L37.7103 26.3852C37.6767 31.1449 37.0243 35.723 35.816 39.6834M35.8151 12.3161L35.5873 11.5814C34.0458 6.89962 31.8148 3.55666 29.2855 1.99476L27.6541 1.05403M35.816 39.6834C38.3507 40.5213 40.7958 41.6865 43.0946 43.1527L43.7228 43.6064M35.816 39.6834L35.5883 40.4184C34.049 45.0948 31.821 48.4355 29.2942 49.9992L27.5926 50.9482M8.23708 8.41304C8.34872 8.3005 8.46157 8.18883 8.57562 8.07804C12.8688 3.90118 18.4169 1.44144 24.3459 1.05403M43.7551 8.40511C43.646 8.29526 43.5357 8.18623 43.4244 8.07804C39.1312 3.90118 33.5831 1.44144 27.6541 1.05403M8.29185 43.6211C8.36653 43.6961 8.44168 43.7707 8.5173 43.8448C8.51936 43.8482 8.51937 43.8521 8.52153 43.8555C8.55881 43.9127 8.60887 43.9565 8.6654 43.986C12.8058 47.9773 18.3118 50.5615 24.4074 50.9482M43.7228 43.6064C43.6433 43.6864 43.5633 43.7659 43.4827 43.8448C43.4806 43.8482 43.4806 43.8521 43.4785 43.8555C43.4412 43.9127 43.3911 43.9565 43.3346 43.986C39.1942 47.9773 33.6882 50.5615 27.5926 50.9482" stroke="#5B114E"/>
</svg>
