<svg width="10" height="13" viewBox="0 0 10 13" fill="none" xmlns="http://www.w3.org/2000/svg">
<path fill-rule="evenodd" clip-rule="evenodd" d="M6.88424 10.7082L8.95425 8.18729C9.26286 7.82527 9.50808 7.41405 9.67964 6.97089C9.97137 6.17113 10.0658 5.3132 9.95495 4.46945C9.84409 3.6257 9.53122 2.82089 9.04271 2.12291C8.59263 1.46844 7.98929 0.933104 7.28488 0.563207C6.58048 0.193311 5.79624 0 5 0C4.20376 0 3.41952 0.193311 2.71512 0.563207C2.01071 0.933104 1.40737 1.46844 0.957286 2.12291C0.46878 2.82089 0.155905 3.6257 0.045054 4.46945C-0.0657973 5.3132 0.0286261 6.17113 0.320359 6.97089C0.491915 7.41405 0.73714 7.82527 1.04575 8.18729L3.09807 10.7082L3.38115 11.0608L4.99115 13L6.60116 11.0432L6.88424 10.7082ZM7.06815 3.73926C7.34542 4.16387 7.49565 4.66433 7.49991 5.17759C7.50275 5.52091 7.44019 5.86141 7.31583 6.17945C7.19147 6.49749 7.00777 6.78676 6.77534 7.03057C6.54291 7.27438 6.26635 7.4679 5.96162 7.59996C5.65689 7.73203 5.33003 7.80001 4.99991 7.8C4.50638 7.79998 4.02389 7.64804 3.61325 7.36333C3.20261 7.07862 2.88218 6.67387 2.69234 6.20008C2.50251 5.7263 2.45176 5.20468 2.54648 4.70095C2.64121 4.19722 2.87718 3.73392 3.22466 3.36943C3.57214 3.00494 4.01558 2.75556 4.49911 2.65272C4.98263 2.54988 5.4846 2.59819 5.94178 2.79154C6.39895 2.9849 6.79087 3.31465 7.06815 3.73926Z" fill="#5B114E"/>
<path fill-rule="evenodd" clip-rule="evenodd" d="M6.88424 10.7082L8.95425 8.18729C9.26286 7.82527 9.50808 7.41405 9.67964 6.97089C9.97137 6.17113 10.0658 5.3132 9.95495 4.46945C9.84409 3.6257 9.53122 2.82089 9.04271 2.12291C8.59263 1.46844 7.98929 0.933104 7.28488 0.563207C6.58048 0.193311 5.79624 0 5 0C4.20376 0 3.41952 0.193311 2.71512 0.563207C2.01071 0.933104 1.40737 1.46844 0.957286 2.12291C0.46878 2.82089 0.155905 3.6257 0.045054 4.46945C-0.0657973 5.3132 0.0286261 6.17113 0.320359 6.97089C0.491915 7.41405 0.73714 7.82527 1.04575 8.18729L3.09807 10.7082L3.38115 11.0608L4.99115 13L6.60116 11.0432L6.88424 10.7082ZM7.06815 3.73926C7.34542 4.16387 7.49565 4.66433 7.49991 5.17759C7.50275 5.52091 7.44019 5.86141 7.31583 6.17945C7.19147 6.49749 7.00777 6.78676 6.77534 7.03057C6.54291 7.27438 6.26635 7.4679 5.96162 7.59996C5.65689 7.73203 5.33003 7.80001 4.99991 7.8C4.50638 7.79998 4.02389 7.64804 3.61325 7.36333C3.20261 7.07862 2.88218 6.67387 2.69234 6.20008C2.50251 5.7263 2.45176 5.20468 2.54648 4.70095C2.64121 4.19722 2.87718 3.73392 3.22466 3.36943C3.57214 3.00494 4.01558 2.75556 4.49911 2.65272C4.98263 2.54988 5.4846 2.59819 5.94178 2.79154C6.39895 2.9849 6.79087 3.31465 7.06815 3.73926Z" fill="#5B114E"/>
</svg>
