<svg width="15" height="9" viewBox="0 0 15 9" fill="none" xmlns="http://www.w3.org/2000/svg">
<path d="M0.0456912 3.62616L0 4.1973C0.676615 5.53723 1.68678 6.68042 2.93324 7.51682C4.17971 8.35322 5.6205 8.85465 7.11692 8.97285C8.61334 9.09105 10.115 8.82203 11.4773 8.19169C12.8396 7.56136 14.0167 6.59094 14.8953 5.37384L14.941 4.8027C14.2644 3.46277 13.2542 2.31958 12.0078 1.48318C10.7613 0.646785 9.32052 0.145352 7.8241 0.0271532C6.32768 -0.0910454 4.82603 0.177971 3.46371 0.808304C2.10139 1.43864 0.92428 2.40906 0.0456912 3.62616ZM7.36199 7.88115C6.69338 7.82709 6.0558 7.57604 5.52984 7.15972C5.00387 6.74341 4.61312 6.18051 4.40698 5.54218C4.20084 4.90385 4.18856 4.21873 4.37169 3.57342C4.55482 2.92811 4.92514 2.35157 5.43585 1.91667C5.94656 1.48177 6.57473 1.20803 7.24097 1.13004C7.90722 1.05206 8.58163 1.17333 9.17897 1.47853C9.7763 1.78374 10.2698 2.25917 10.597 2.84475C10.9242 3.43032 11.0704 4.09975 11.0173 4.76843C10.982 5.21525 10.8587 5.65068 10.6545 6.04964C10.4502 6.44861 10.169 6.80322 9.82716 7.09307C9.48529 7.38292 9.08946 7.60228 8.66245 7.73851C8.23545 7.87474 7.78572 7.92516 7.33915 7.88686L7.36199 7.88115Z" fill="#5B114E"/>
<path d="M7.61328 6.19628C8.55011 6.19628 9.30956 5.43683 9.30956 4.5C9.30956 3.56316 8.55011 2.80371 7.61328 2.80371C6.67645 2.80371 5.91699 3.56316 5.91699 4.5C5.91699 5.43683 6.67645 6.19628 7.61328 6.19628Z" fill="#5B114E"/>
</svg>
